<svg width="188" height="78" viewBox="0 0 188 78" fill="none" xmlns="http://www.w3.org/2000/svg">
<mask id="path-1-inside-1_232_3764" fill="white">
<path d="M37.3154 0.0820595C37.011 0.0973613 35.9215 0.204474 34.9122 0.296285C31.0832 0.632924 26.1167 1.62754 25.5079 2.1631C24.9792 2.62216 25.0112 3.37194 25.588 3.80039C26.0846 4.18294 26.2128 4.18294 28.9684 3.57087C39.5903 1.22969 52.1829 2.23961 61.427 6.20278C68.9088 9.38555 74.7885 15.0472 77.8966 21.9942C78.8578 24.1518 79.002 25.1617 78.5214 26.0798C78.1369 26.8143 77.2237 27.6253 76.5989 27.7783C76.3586 27.8548 60.2574 27.9007 40.824 27.9007H5.48162L4.71261 27.4417C3.07847 26.4776 2.80611 25.0546 3.76737 22.7134C6.7633 15.5522 12.2905 9.95171 19.6923 6.58532C21.8391 5.60601 22.2556 5.29997 22.2556 4.6879C22.2556 4.15234 21.6148 3.49436 21.0861 3.49436C20.8778 3.49436 19.7083 3.96871 18.4747 4.55018C11.2972 7.94718 5.96225 12.9662 2.62988 19.4694C2.06914 20.5712 1.4283 21.9942 1.18799 22.6216C0.386938 24.7791 0.707358 26.8449 2.10119 28.3598L2.75805 29.0636L1.94098 29.8593C0.41898 31.3589 -0.109713 32.8279 0.018455 35.3374C0.0825391 36.5615 0.178665 36.9747 0.57919 37.801C1.39626 39.4536 2.70998 40.6165 4.36015 41.1521L5.19324 41.4275V44.8092V48.2062L4.42423 48.4816C2.51773 49.1702 0.979716 50.6392 0.354896 52.353C-0.093692 53.5771 -0.045629 56.5304 0.435001 57.6627C1.13993 59.3459 2.40559 60.5394 4.23198 61.2586L5.19324 61.6259L5.28937 63.355C5.35345 64.3037 5.51366 65.5278 5.67387 66.0787C7.19587 71.572 11.874 75.5658 18.8111 77.2949C21.7429 78.0294 21.9833 78.0294 41.8813 77.9835C60.2254 77.9223 60.658 77.9223 62.0678 77.6009C69.6778 75.9177 74.7404 71.8322 76.3265 66.0787C76.4867 65.5278 76.6469 64.3037 76.711 63.355L76.8071 61.6259L77.7684 61.2586C80.4599 60.2181 81.8377 58.2901 81.9819 55.3521C82.0941 52.9497 81.4853 51.3125 79.9473 49.8894C79.2263 49.2008 77.5601 48.3286 76.9994 48.3286C76.7431 48.3286 76.727 48.0991 76.7591 44.8704L76.8071 41.4275L77.6402 41.1521C79.2904 40.6165 80.6041 39.4536 81.4212 37.801C81.8217 36.9747 81.9178 36.5615 81.9819 35.3374C82.1101 32.8738 81.5654 31.3283 80.0594 29.8593L79.2423 29.0636L79.8992 28.3598C81.3251 26.799 81.6134 24.7485 80.7002 22.3615C78.8098 17.3578 74.8045 12.0634 70.3827 8.68167C63.8622 3.72389 55.7716 0.954262 45.438 0.143267C43.5636 -0.00975121 38.6611 -0.0556566 37.3154 0.0820595ZM74.3239 42.8965V44.1971H62.0037H49.6676L49.3471 44.595C49.1549 44.8245 49.0107 45.0999 49.0107 45.207C49.0107 45.6049 49.3792 46.1557 49.7637 46.3241C50.036 46.4465 53.7209 46.4924 62.228 46.4924H74.3239V49.1243C74.3239 51.9704 74.2438 52.2765 73.4748 52.8273C72.7538 53.3323 71.9848 53.2405 70.7832 52.506C69.3253 51.5879 68.5403 51.3584 66.9542 51.3431C65.0157 51.3278 64.0865 51.6491 61.9557 53.0875C60.0331 54.4034 59.0719 54.7248 57.6781 54.5258C56.6047 54.3728 56.092 54.128 54.4739 53.011C52.5353 51.695 51.5741 51.3584 49.7316 51.3431C47.5528 51.3278 46.8158 51.6185 43.6757 53.7607C42.41 54.6176 40.5997 54.8013 39.0777 54.2045C38.7733 54.0821 38.0043 53.5924 37.3474 53.1334C34.8161 51.3125 32.6212 50.8687 30.0258 51.6491C29.1126 51.9245 28.3276 52.3683 27.0619 53.317C26.5813 53.6842 25.9084 54.0821 25.588 54.2198L24.9792 54.4493V51.0829C24.9792 47.5023 25.0753 47.0126 25.7642 46.6454C25.9725 46.5536 29.3689 46.4924 35.553 46.4924H45.0215L45.406 46.1098C45.9026 45.6508 45.9186 44.9928 45.4861 44.5338L45.1496 44.1971H35.521C28.68 44.1971 25.7162 44.243 25.2836 44.3807C24.4665 44.6103 23.4572 45.4366 23.0086 46.2476C22.6561 46.8596 22.6561 46.982 22.576 54.8319C22.4799 63.8446 22.544 63.4774 21.1662 64.1048C20.3812 64.472 19.5801 64.4108 18.8592 63.9058C17.9139 63.2785 17.9299 63.3856 17.9299 55.4745C17.9299 51.2053 17.8659 47.8849 17.7697 47.3952C17.5454 46.2629 16.8726 45.2988 15.9433 44.7327L15.1583 44.2736L11.4094 44.2277L7.6765 44.1818V42.8812V41.5958H41.0002H74.3239V42.8965ZM14.902 46.9361C15.3666 47.3799 15.3666 47.3952 15.3666 49.2926V51.2053L14.5335 51.3125C13.2358 51.4655 12.2585 51.8174 11.1691 52.506C10.0957 53.1946 9.34268 53.317 8.60571 52.9344C7.77262 52.5213 7.6765 52.1081 7.6765 49.1855V46.4924H11.0569H14.4374L14.902 46.9361ZM15.4307 62.5746C15.655 64.166 16.6803 65.5431 18.1863 66.247C19.3398 66.7979 21.2142 66.7673 22.3517 66.2011C23.8737 65.436 24.9792 63.8293 24.9792 62.3756V61.7942H49.6515H74.3239V62.697C74.3239 66.4459 72.1931 70.2102 68.8287 72.383C66.746 73.7296 63.5097 74.969 60.8662 75.4281C59.1039 75.7341 22.9125 75.7341 21.1341 75.4281C16.6322 74.663 12.5629 72.5666 10.32 69.8582C8.70184 67.9149 7.6765 65.2371 7.6765 62.8959V61.7942H11.5055H15.3185L15.4307 62.5746Z"/>
</mask>
<path d="M37.3154 0.0820595C37.011 0.0973613 35.9215 0.204474 34.9122 0.296285C31.0832 0.632924 26.1167 1.62754 25.5079 2.1631C24.9792 2.62216 25.0112 3.37194 25.588 3.80039C26.0846 4.18294 26.2128 4.18294 28.9684 3.57087C39.5903 1.22969 52.1829 2.23961 61.427 6.20278C68.9088 9.38555 74.7885 15.0472 77.8966 21.9942C78.8578 24.1518 79.002 25.1617 78.5214 26.0798C78.1369 26.8143 77.2237 27.6253 76.5989 27.7783C76.3586 27.8548 60.2574 27.9007 40.824 27.9007H5.48162L4.71261 27.4417C3.07847 26.4776 2.80611 25.0546 3.76737 22.7134C6.7633 15.5522 12.2905 9.95171 19.6923 6.58532C21.8391 5.60601 22.2556 5.29997 22.2556 4.6879C22.2556 4.15234 21.6148 3.49436 21.0861 3.49436C20.8778 3.49436 19.7083 3.96871 18.4747 4.55018C11.2972 7.94718 5.96225 12.9662 2.62988 19.4694C2.06914 20.5712 1.4283 21.9942 1.18799 22.6216C0.386938 24.7791 0.707358 26.8449 2.10119 28.3598L2.75805 29.0636L1.94098 29.8593C0.41898 31.3589 -0.109713 32.8279 0.018455 35.3374C0.0825391 36.5615 0.178665 36.9747 0.57919 37.801C1.39626 39.4536 2.70998 40.6165 4.36015 41.1521L5.19324 41.4275V44.8092V48.2062L4.42423 48.4816C2.51773 49.1702 0.979716 50.6392 0.354896 52.353C-0.093692 53.5771 -0.045629 56.5304 0.435001 57.6627C1.13993 59.3459 2.40559 60.5394 4.23198 61.2586L5.19324 61.6259L5.28937 63.355C5.35345 64.3037 5.51366 65.5278 5.67387 66.0787C7.19587 71.572 11.874 75.5658 18.8111 77.2949C21.7429 78.0294 21.9833 78.0294 41.8813 77.9835C60.2254 77.9223 60.658 77.9223 62.0678 77.6009C69.6778 75.9177 74.7404 71.8322 76.3265 66.0787C76.4867 65.5278 76.6469 64.3037 76.711 63.355L76.8071 61.6259L77.7684 61.2586C80.4599 60.2181 81.8377 58.2901 81.9819 55.3521C82.0941 52.9497 81.4853 51.3125 79.9473 49.8894C79.2263 49.2008 77.5601 48.3286 76.9994 48.3286C76.7431 48.3286 76.727 48.0991 76.7591 44.8704L76.8071 41.4275L77.6402 41.1521C79.2904 40.6165 80.6041 39.4536 81.4212 37.801C81.8217 36.9747 81.9178 36.5615 81.9819 35.3374C82.1101 32.8738 81.5654 31.3283 80.0594 29.8593L79.2423 29.0636L79.8992 28.3598C81.3251 26.799 81.6134 24.7485 80.7002 22.3615C78.8098 17.3578 74.8045 12.0634 70.3827 8.68167C63.8622 3.72389 55.7716 0.954262 45.438 0.143267C43.5636 -0.00975121 38.6611 -0.0556566 37.3154 0.0820595ZM74.3239 42.8965V44.1971H62.0037H49.6676L49.3471 44.595C49.1549 44.8245 49.0107 45.0999 49.0107 45.207C49.0107 45.6049 49.3792 46.1557 49.7637 46.3241C50.036 46.4465 53.7209 46.4924 62.228 46.4924H74.3239V49.1243C74.3239 51.9704 74.2438 52.2765 73.4748 52.8273C72.7538 53.3323 71.9848 53.2405 70.7832 52.506C69.3253 51.5879 68.5403 51.3584 66.9542 51.3431C65.0157 51.3278 64.0865 51.6491 61.9557 53.0875C60.0331 54.4034 59.0719 54.7248 57.6781 54.5258C56.6047 54.3728 56.092 54.128 54.4739 53.011C52.5353 51.695 51.5741 51.3584 49.7316 51.3431C47.5528 51.3278 46.8158 51.6185 43.6757 53.7607C42.41 54.6176 40.5997 54.8013 39.0777 54.2045C38.7733 54.0821 38.0043 53.5924 37.3474 53.1334C34.8161 51.3125 32.6212 50.8687 30.0258 51.6491C29.1126 51.9245 28.3276 52.3683 27.0619 53.317C26.5813 53.6842 25.9084 54.0821 25.588 54.2198L24.9792 54.4493V51.0829C24.9792 47.5023 25.0753 47.0126 25.7642 46.6454C25.9725 46.5536 29.3689 46.4924 35.553 46.4924H45.0215L45.406 46.1098C45.9026 45.6508 45.9186 44.9928 45.4861 44.5338L45.1496 44.1971H35.521C28.68 44.1971 25.7162 44.243 25.2836 44.3807C24.4665 44.6103 23.4572 45.4366 23.0086 46.2476C22.6561 46.8596 22.6561 46.982 22.576 54.8319C22.4799 63.8446 22.544 63.4774 21.1662 64.1048C20.3812 64.472 19.5801 64.4108 18.8592 63.9058C17.9139 63.2785 17.9299 63.3856 17.9299 55.4745C17.9299 51.2053 17.8659 47.8849 17.7697 47.3952C17.5454 46.2629 16.8726 45.2988 15.9433 44.7327L15.1583 44.2736L11.4094 44.2277L7.6765 44.1818V42.8812V41.5958H41.0002H74.3239V42.8965ZM14.902 46.9361C15.3666 47.3799 15.3666 47.3952 15.3666 49.2926V51.2053L14.5335 51.3125C13.2358 51.4655 12.2585 51.8174 11.1691 52.506C10.0957 53.1946 9.34268 53.317 8.60571 52.9344C7.77262 52.5213 7.6765 52.1081 7.6765 49.1855V46.4924H11.0569H14.4374L14.902 46.9361ZM15.4307 62.5746C15.655 64.166 16.6803 65.5431 18.1863 66.247C19.3398 66.7979 21.2142 66.7673 22.3517 66.2011C23.8737 65.436 24.9792 63.8293 24.9792 62.3756V61.7942H49.6515H74.3239V62.697C74.3239 66.4459 72.1931 70.2102 68.8287 72.383C66.746 73.7296 63.5097 74.969 60.8662 75.4281C59.1039 75.7341 22.9125 75.7341 21.1341 75.4281C16.6322 74.663 12.5629 72.5666 10.32 69.8582C8.70184 67.9149 7.6765 65.2371 7.6765 62.8959V61.7942H11.5055H15.3185L15.4307 62.5746Z" fill="#F58737" stroke="black" stroke-width="1.5" mask="url(#path-1-inside-1_232_3764)"/>
<path d="M41.2556 9.33718C40.7058 9.57922 40.5226 10.1087 40.5226 11.4853C40.5226 12.529 40.5892 12.8165 40.8724 13.1493C41.289 13.6333 42.122 13.6787 42.7051 13.2551C43.0716 12.9829 43.1049 12.8618 43.1049 11.4247C43.1049 9.92715 43.0883 9.88176 42.6384 9.51871C42.1386 9.1254 41.8054 9.08002 41.2556 9.33718Z" fill="black"/>
<path d="M30.7431 9.53369C30.3099 9.80598 29.0271 11.8935 29.0271 12.3171C29.0271 12.8163 29.7435 13.4365 30.3266 13.4365C31.0097 13.4365 31.2263 13.255 32.026 11.9541C32.7923 10.6531 32.859 10.1993 32.2759 9.68496C31.826 9.2614 31.2596 9.20089 30.7431 9.53369Z" fill="black"/>
<path d="M51.4515 9.62443C50.8184 10.0782 50.8851 10.7287 51.6348 11.9086C52.5178 13.2701 52.6511 13.3911 53.3675 13.3911C53.8506 13.3911 54.0672 13.3003 54.3338 12.9978C54.8336 12.423 54.7836 12.1204 53.9173 10.7892C52.9343 9.2765 52.3345 8.98908 51.4515 9.62443Z" fill="black"/>
<path d="M99.5875 22.24C99.1715 22.24 98.8395 22.348 98.5915 22.564C98.3515 22.78 98.2315 23.06 98.2315 23.404V23.812C98.2315 24.628 98.5835 25.036 99.2875 25.036C99.8315 25.036 100.403 24.884 101.003 24.58C101.611 24.276 102.011 23.92 102.203 23.512H102.647V27.172H102.203C102.019 26.748 101.631 26.408 101.039 26.152C100.447 25.888 99.8635 25.756 99.2875 25.756C98.9115 25.756 98.6395 25.86 98.4715 26.068C98.3115 26.276 98.2315 26.528 98.2315 26.824V27.256C98.2315 27.872 98.2915 28.316 98.4115 28.588C98.5395 28.852 98.8235 28.984 99.2635 28.984H99.5635C100.011 28.984 100.379 28.98 100.667 28.972C100.955 28.956 101.323 28.912 101.771 28.84C102.219 28.76 102.607 28.656 102.935 28.528C103.263 28.392 103.611 28.192 103.979 27.928C104.347 27.656 104.671 27.332 104.951 26.956H105.299V29.5H90.8155V28.984H92.2555C93.1275 28.984 93.5635 28.552 93.5635 27.688V23.536C93.5635 23.176 93.4355 22.868 93.1795 22.612C92.9235 22.348 92.6155 22.216 92.2555 22.216H90.8155V21.7H105.299V24.46H104.951C104.487 23.836 103.815 23.312 102.935 22.888C102.055 22.456 100.939 22.24 99.5875 22.24ZM95.1595 28.984V22.216H94.3675V28.984H95.1595ZM113.524 24.4V27.928C113.524 28.64 113.884 28.996 114.604 28.996C115.188 28.996 115.808 28.844 116.464 28.54C117.272 28.156 118.012 27.476 118.684 26.5H119.056V29.5H107.14V28.984H108.4C109.112 28.984 109.468 28.632 109.468 27.928V24.4C109.468 24.112 109.36 23.86 109.144 23.644C108.936 23.428 108.688 23.32 108.4 23.32H107.14V22.804H116.344V23.32H114.604C114.308 23.32 114.052 23.428 113.836 23.644C113.628 23.86 113.524 24.112 113.524 24.4ZM110.224 28.984H110.824V23.32H110.224V28.984ZM140.971 23.416C140.971 23.704 140.911 23.964 140.791 24.196C140.671 24.428 140.515 24.616 140.323 24.76C139.979 25.016 139.659 25.196 139.363 25.3V25.36C139.747 25.424 140.195 25.588 140.707 25.852C140.995 26.004 141.227 26.216 141.403 26.488C141.587 26.752 141.679 27.052 141.679 27.388C141.679 27.724 141.595 28.02 141.427 28.276C141.259 28.532 141.047 28.736 140.791 28.888C140.535 29.032 140.235 29.152 139.891 29.248C139.291 29.416 138.659 29.5 137.995 29.5H125.503V28.984H126.943C127.335 28.984 127.647 28.88 127.879 28.672C128.119 28.464 128.239 28.136 128.239 27.688V23.536C128.239 23.176 128.111 22.868 127.855 22.612C127.607 22.348 127.303 22.216 126.943 22.216H125.503V21.7H137.047C138.615 21.7 139.675 21.852 140.227 22.156C140.723 22.444 140.971 22.864 140.971 23.416ZM133.939 28.984H135.031C135.511 28.984 135.931 28.852 136.291 28.588C136.659 28.316 136.843 27.892 136.843 27.316C136.843 26.732 136.663 26.304 136.303 26.032C135.951 25.752 135.483 25.612 134.899 25.612H132.931V27.76C132.931 28.576 133.267 28.984 133.939 28.984ZM132.931 23.404V25.156H134.815C135.223 25.156 135.587 25.032 135.907 24.784C136.227 24.528 136.387 24.164 136.387 23.692C136.387 23.22 136.211 22.86 135.859 22.612C135.507 22.356 135.003 22.228 134.347 22.228C133.907 22.228 133.559 22.336 133.303 22.552C133.055 22.76 132.931 23.044 132.931 23.404ZM129.835 28.984V22.216H129.055V28.984H129.835ZM137.851 24.592C138.091 24.352 138.211 24.076 138.211 23.764C138.211 23.452 138.091 23.176 137.851 22.936C137.611 22.696 137.299 22.52 136.915 22.408L136.879 22.444C137.199 22.844 137.359 23.288 137.359 23.776C137.359 24.256 137.199 24.692 136.879 25.084L136.915 25.132C137.299 25.004 137.611 24.824 137.851 24.592ZM137.143 28.936C137.607 28.784 137.979 28.564 138.259 28.276C138.547 27.988 138.691 27.66 138.691 27.292C138.691 26.916 138.547 26.584 138.259 26.296C137.979 26 137.607 25.776 137.143 25.624L137.107 25.672C137.603 26.104 137.851 26.644 137.851 27.292C137.851 27.932 137.607 28.464 137.119 28.888L137.143 28.936ZM150.204 22.804H154.908V23.32C154.348 23.32 153.884 23.428 153.516 23.644C153.084 23.892 152.868 24.432 152.868 25.264V27.448C152.868 28.168 152.704 28.668 152.376 28.948C151.96 29.316 151.42 29.556 150.756 29.668C150.34 29.732 149.768 29.764 149.04 29.764C148.32 29.764 147.636 29.716 146.988 29.62C146.348 29.524 145.864 29.412 145.536 29.284C145.208 29.148 144.952 28.976 144.768 28.768C144.584 28.56 144.472 28.38 144.432 28.228C144.4 28.076 144.384 27.896 144.384 27.688V24.376C144.384 23.672 144.028 23.32 143.316 23.32H142.884V22.804H149.688V23.32H149.496C148.784 23.32 148.428 23.672 148.428 24.376V27.808C148.428 28.312 148.516 28.684 148.692 28.924C148.876 29.164 149.172 29.284 149.58 29.284C150.556 29.284 151.224 29.148 151.584 28.876C151.952 28.596 152.136 28.216 152.136 27.736V25.264C152.136 24.856 152.068 24.512 151.932 24.232C151.796 23.952 151.616 23.752 151.392 23.632C151 23.424 150.604 23.32 150.204 23.32V22.804ZM145.728 23.32H145.14V27.376C145.14 27.88 145.268 28.244 145.524 28.468C145.58 28.516 145.648 28.556 145.728 28.588V23.32ZM163.331 23.32C162.987 23.32 162.715 23.408 162.515 23.584C162.323 23.76 162.227 23.992 162.227 24.28V24.76C162.227 25.344 162.511 25.636 163.079 25.636C163.535 25.636 164.015 25.508 164.519 25.252C165.031 24.988 165.367 24.684 165.527 24.34H165.971V27.508H165.527C165.367 27.148 165.039 26.86 164.543 26.644C164.047 26.42 163.559 26.308 163.079 26.308C162.511 26.308 162.227 26.6 162.227 27.184V27.988C162.227 28.652 162.499 28.984 163.043 28.984H163.967C165.727 28.984 167.027 28.412 167.867 27.268H168.215V29.5H155.843V28.984H157.103C157.815 28.984 158.171 28.632 158.171 27.928V24.388C158.171 24.1 158.067 23.852 157.859 23.644C157.651 23.428 157.399 23.32 157.103 23.32H155.843V22.804H168.215V25.204H167.867C167.483 24.676 166.915 24.232 166.163 23.872C165.419 23.504 164.475 23.32 163.331 23.32ZM158.915 28.984H159.527V23.32H158.915V28.984ZM179.502 23.32V22.804H184.878V23.32C183.326 23.32 182.55 23.972 182.55 25.276V29.932H181.578L174.474 25.636C174.282 25.54 174.118 25.492 173.982 25.492C173.67 25.492 173.514 25.72 173.514 26.176V26.632C173.514 27.048 173.614 27.416 173.814 27.736C174.022 28.048 174.29 28.292 174.618 28.468C175.258 28.812 175.958 28.984 176.718 28.984V29.5H169.566V28.984C170.334 28.984 171.038 28.812 171.678 28.468C172.006 28.292 172.27 28.048 172.47 27.736C172.678 27.416 172.782 27.048 172.782 26.632V25.576C172.782 24.912 172.446 24.372 171.774 23.956C171.102 23.532 170.326 23.32 169.446 23.32V22.804H177.138L180.678 25.036L180.822 25.12C180.918 25.176 181.018 25.236 181.122 25.3C181.378 25.452 181.55 25.528 181.638 25.528C181.766 25.528 181.83 25.444 181.83 25.276C181.83 23.972 181.054 23.32 179.502 23.32ZM173.154 23.32V23.824L181.566 29.044V28.396L173.37 23.32H173.154ZM101.369 44.136C101.369 43.776 101.437 43.452 101.573 43.164C101.709 42.876 101.877 42.64 102.077 42.456C102.277 42.272 102.545 42.116 102.881 41.988C103.225 41.852 103.541 41.752 103.829 41.688C104.117 41.616 104.481 41.564 104.921 41.532C105.569 41.484 106.277 41.46 107.045 41.46C107.813 41.46 108.785 41.54 109.961 41.7C111.137 41.852 112.149 42.024 112.997 42.216L113.213 41.7H113.777V44.232H113.213C112.909 43.8 112.033 43.312 110.585 42.768C109.145 42.224 107.917 41.952 106.901 41.952C105.893 41.952 105.389 42.168 105.389 42.6C105.389 43.008 105.973 43.32 107.141 43.536C107.661 43.632 108.233 43.728 108.857 43.824C109.481 43.92 110.105 44.048 110.729 44.208C111.361 44.36 111.937 44.544 112.457 44.76C112.977 44.976 113.397 45.28 113.717 45.672C114.045 46.056 114.209 46.508 114.209 47.028C114.209 47.98 113.685 48.672 112.637 49.104C111.589 49.536 110.025 49.752 107.945 49.752C106.897 49.752 105.953 49.676 105.113 49.524C104.281 49.372 103.325 49.132 102.245 48.804L101.909 49.5H101.345V46.128H101.909C102.037 46.424 102.309 46.752 102.725 47.112C103.141 47.464 103.641 47.804 104.225 48.132C104.809 48.452 105.485 48.72 106.253 48.936C107.021 49.152 107.773 49.26 108.509 49.26C109.845 49.26 110.513 49.06 110.513 48.66C110.513 48.412 110.197 48.184 109.565 47.976C108.941 47.76 108.181 47.556 107.285 47.364C106.389 47.164 105.493 46.94 104.597 46.692C103.701 46.444 102.937 46.104 102.305 45.672C101.681 45.232 101.369 44.72 101.369 44.136ZM111.941 48.396C111.941 47.932 111.765 47.568 111.413 47.304C111.045 47.032 110.645 46.84 110.213 46.728C109.789 46.608 109.449 46.52 109.193 46.464C108.937 46.4 108.597 46.324 108.173 46.236C107.757 46.148 107.317 46.052 106.853 45.948C106.397 45.836 105.933 45.708 105.461 45.564C104.989 45.412 104.513 45.22 104.033 44.988C103.049 44.524 102.485 43.912 102.341 43.152L102.257 43.14C102.153 43.372 102.101 43.652 102.101 43.98C102.101 44.532 102.433 45.008 103.097 45.408C103.881 45.888 105.397 46.388 107.645 46.908C108.141 47.028 108.529 47.12 108.809 47.184C109.089 47.248 109.389 47.324 109.709 47.412C110.037 47.492 110.293 47.568 110.477 47.64C110.669 47.712 110.861 47.8 111.053 47.904C111.389 48.088 111.669 48.348 111.893 48.684L111.941 48.672V48.396ZM129.758 48.984V49.5H122.03V48.984H122.822C122.99 48.984 123.126 48.952 123.23 48.888C123.334 48.816 123.386 48.704 123.386 48.552C123.386 48.4 123.294 48.208 123.11 47.976L122.738 47.508H118.25C118.066 47.82 117.974 48.088 117.974 48.312C117.974 48.528 118.042 48.696 118.178 48.816C118.314 48.928 118.49 48.984 118.706 48.984H119.69V49.5H115.178V48.984C115.562 48.984 115.91 48.916 116.222 48.78C116.542 48.644 116.762 48.508 116.882 48.372L117.074 48.168L120.122 44.268L119.786 43.848C119.674 43.712 119.586 43.612 119.522 43.548C119.338 43.396 119.014 43.32 118.55 43.32H117.71V42.804H123.602L128.57 48.984H129.758ZM120.422 43.32L124.994 48.984H125.714L121.154 43.32H120.422ZM120.458 44.664L118.634 47.016H122.342L120.458 44.664ZM143.539 46.392C143.763 46.52 143.947 46.696 144.091 46.92C144.235 47.144 144.307 47.412 144.307 47.724C144.307 48.036 144.199 48.32 143.983 48.576C143.775 48.832 143.503 49.02 143.167 49.14C142.519 49.38 141.843 49.5 141.139 49.5H130.483V48.984H131.743C132.455 48.984 132.811 48.632 132.811 47.928V44.4C132.811 44.112 132.703 43.86 132.487 43.644C132.279 43.428 132.031 43.32 131.743 43.32H130.483V42.804H140.119C141.391 42.804 142.239 42.884 142.663 43.044C143.143 43.22 143.447 43.452 143.575 43.74C143.655 43.916 143.695 44.14 143.695 44.412C143.695 44.676 143.607 44.928 143.431 45.168C143.263 45.4 143.091 45.568 142.915 45.672C142.747 45.768 142.571 45.844 142.387 45.9V45.948C142.755 46.012 143.139 46.16 143.539 46.392ZM136.867 44.292V45.744H138.427C138.771 45.744 139.075 45.64 139.339 45.432C139.603 45.224 139.735 44.924 139.735 44.532C139.735 44.14 139.587 43.84 139.291 43.632C138.995 43.424 138.619 43.32 138.163 43.32C137.715 43.32 137.387 43.408 137.179 43.584C136.971 43.76 136.867 43.996 136.867 44.292ZM134.167 48.984V43.32H133.567V48.984H134.167ZM137.683 48.984H138.619C139.027 48.984 139.379 48.876 139.675 48.66C139.979 48.436 140.131 48.088 140.131 47.616C140.131 47.136 139.979 46.78 139.675 46.548C139.379 46.316 138.991 46.2 138.511 46.2H136.867V47.976C136.867 48.648 137.139 48.984 137.683 48.984ZM141.007 45.276C141.199 45.052 141.295 44.824 141.295 44.592C141.295 44.36 141.199 44.136 141.007 43.92C140.815 43.696 140.575 43.528 140.287 43.416L140.239 43.452C140.503 43.828 140.635 44.208 140.635 44.592C140.635 44.976 140.503 45.356 140.239 45.732L140.287 45.78C140.575 45.668 140.815 45.5 141.007 45.276ZM141.379 48.432C141.587 48.168 141.691 47.888 141.691 47.592C141.691 47.296 141.587 47.016 141.379 46.752C141.171 46.488 140.895 46.292 140.551 46.164L140.515 46.212C140.867 46.604 141.043 47.064 141.043 47.592C141.043 48.12 140.867 48.58 140.515 48.972L140.551 49.02C140.895 48.892 141.171 48.696 141.379 48.432ZM158.13 46.14C158.13 46.796 157.834 47.404 157.242 47.964C156.658 48.516 155.862 48.956 154.854 49.284C153.846 49.604 152.742 49.764 151.542 49.764C150.35 49.764 149.246 49.604 148.23 49.284C147.222 48.956 146.422 48.516 145.83 47.964C145.238 47.404 144.942 46.796 144.942 46.14C144.942 45.124 145.55 44.272 146.766 43.584C147.982 42.888 149.574 42.54 151.542 42.54C153.51 42.54 155.098 42.888 156.306 43.584C157.522 44.272 158.13 45.124 158.13 46.14ZM153.222 43.812C152.91 43.316 152.35 43.068 151.542 43.068C150.734 43.068 150.174 43.316 149.862 43.812C149.55 44.308 149.394 45.076 149.394 46.116C149.394 47.156 149.578 47.94 149.946 48.468C150.322 48.988 150.854 49.248 151.542 49.248C152.23 49.248 152.758 48.988 153.126 48.468C153.502 47.94 153.69 47.156 153.69 46.116C153.69 45.076 153.534 44.308 153.222 43.812ZM149.31 49.152C148.39 48.912 147.646 48.528 147.078 48C146.518 47.464 146.238 46.848 146.238 46.152C146.238 45.448 146.518 44.832 147.078 44.304C147.646 43.776 148.394 43.388 149.322 43.14L149.298 43.068C148.13 43.308 147.19 43.7 146.478 44.244C145.774 44.788 145.422 45.424 145.422 46.152C145.422 46.872 145.774 47.504 146.478 48.048C147.19 48.592 148.126 48.988 149.286 49.236L149.31 49.152ZM153.882 43.26C154.258 44.204 154.446 45.164 154.446 46.14C154.446 47.116 154.254 48.084 153.87 49.044L153.918 49.08C154.822 48.304 155.274 47.328 155.274 46.152C155.274 44.968 154.826 43.992 153.93 43.224L153.882 43.26ZM174.624 48.984V49.5H168.528L166.476 46.872C166.268 46.6 166.096 46.464 165.96 46.464C165.824 46.464 165.744 46.512 165.72 46.608C165.696 46.696 165.684 46.88 165.684 47.16V47.916C165.684 48.628 166.04 48.984 166.752 48.984H167.532V49.5H159.276V48.984H160.548C161.268 48.984 161.628 48.628 161.628 47.916V44.4C161.628 44.104 161.52 43.852 161.304 43.644C161.096 43.428 160.844 43.32 160.548 43.32H159.276V42.804C165.436 42.796 169.1 42.792 170.268 42.792C172.684 42.792 173.892 43.424 173.892 44.688C173.892 45.048 173.776 45.352 173.544 45.6C173.32 45.84 173 46.02 172.584 46.14C171.88 46.332 171.02 46.436 170.004 46.452V46.524C170.172 46.668 170.436 46.816 170.796 46.968C171.164 47.112 171.576 47.22 172.032 47.292L173.388 48.984H174.624ZM162.372 48.984H162.984V43.32H162.372V48.984ZM165.684 43.812V45.252C165.684 45.42 165.848 45.568 166.176 45.696C166.504 45.816 166.892 45.876 167.34 45.876C167.788 45.876 168.176 45.78 168.504 45.588C168.832 45.396 168.996 45.084 168.996 44.652C168.996 44.22 168.812 43.892 168.444 43.668C168.084 43.436 167.724 43.32 167.364 43.32H166.164C166.028 43.32 165.912 43.368 165.816 43.464C165.728 43.56 165.684 43.676 165.684 43.812ZM167.064 46.464L169.032 48.984H169.788C168.924 47.864 168.272 47.024 167.832 46.464H167.064ZM170.4 45.48C170.568 45.232 170.652 44.972 170.652 44.7C170.652 44.428 170.568 44.168 170.4 43.92C170.232 43.672 170.028 43.496 169.788 43.392L169.74 43.428C169.916 43.74 170.004 44.164 170.004 44.7C170.004 45.236 169.916 45.66 169.74 45.972L169.788 46.008C170.028 45.904 170.232 45.728 170.4 45.48Z" fill="black"/>
<path d="M89.9395 30.7H185.058V31.3H89.9395V30.7ZM100.217 50.7H174.78V51.3H100.217V50.7Z" fill="black"/>
</svg>
